<?xml version="1.0" encoding="utf-8"?>
<!-- Generator: Adobe Illustrator 16.2.1, SVG Export Plug-In . SVG Version: 6.00 Build 0)  -->
<!DOCTYPE svg PUBLIC "-//W3C//DTD SVG 1.1//EN" "http://www.w3.org/Graphics/SVG/1.1/DTD/svg11.dtd">
<svg version="1.1"
	 id="svg2" xmlns:dc="http://purl.org/dc/elements/1.1/" xmlns:cc="http://creativecommons.org/ns#" xmlns:rdf="http://www.w3.org/1999/02/22-rdf-syntax-ns#" xmlns:svg="http://www.w3.org/2000/svg" xmlns:sodipodi="http://sodipodi.sourceforge.net/DTD/sodipodi-0.dtd" xmlns:inkscape="http://www.inkscape.org/namespaces/inkscape" inkscape:version="0.47 r22583" sodipodi:docname="Argentina-geo-stub icon.svg"
	 xmlns="http://www.w3.org/2000/svg" xmlns:xlink="http://www.w3.org/1999/xlink" x="0px" y="0px" width="902.868px"
	 height="902.868px" viewBox="0 0 902.868 902.868" enable-background="new 0 0 902.868 902.868" xml:space="preserve">
<path id="path3166" opacity="0.2" fill="#FFFFFF" stroke="#031089" stroke-width="2" stroke-miterlimit="10" d="M445.189,580.307
	l-22.729,0.215l0.38-5.586l-1.906-3.227l-0.189-2.795l2.095-4.299l-0.38-3.654l-13.143-7.309l-0.764-2.795v-6.877
	c-11.35-1.02-22.672-2.074-33.523-3.652l-1.904-1.076l-0.572-4.084l-4.763-0.861l-3.237,1.291l-5.143-0.217l-5.905-3.008
	l-4.379-0.217l-2.666,1.291l-3.048-3.227l-8-2.148l-20.381,0.43l-15.43,2.363l-4.949,1.506l1.143,6.664l3.807,12.68l-1.141,6.449
	L286.461,568.7l-11.809,2.365l-20.762,58.252l1.904,63.627l11.428,2.58l9.715,8.383l6.093,8.6l3.051,10.746l9.521-1.074l1.715,1.291
	l-0.19,2.578l0.379,3.227l1.716,1.287l0.761,4.086l-2.094,4.729l-0.381,5.375l0.381,7.309l-1.522,4.943l-0.764,5.588l-1.522,6.449
	v5.158l-2.666,4.297l-3.999,2.152l2.095,29.877c1.334,28.383,2.665,60.047,3.999,90.5c31.801-1.268,64.04-2.48,91.427-4.299
	l-0.573-42.133l26.284,0.43l35.426-65.562l7.43-10.961l9.713-10.316l2.096-6.447l0.762-5.16l-2.285-8.383l-2.283-11.607
	l-1.715-7.309l-3.238-7.096l-4.762-9.025l-4.001-7.096l-3.428-4.943l-0.763-4.512l0.763-3.01l4.189-6.234l0.57-4.297l-2.665-6.449
	l-0.763-3.008l1.144-5.807l6.856-21.492l10.096-33.75l1.143-3.01L445.189,580.307z"/>
<path id="path3224" opacity="0.2" fill="#FFFFFF" stroke="#031089" stroke-width="2" stroke-miterlimit="10" d="M409.451,855.561
	l58.659,0.172l42.922-57.061c3.426-4.467,8.391-2.078,12.68-0.516c2.967,2.021,5.729,2.898,7.484-1.896l7.943-11.723l4.43-6.725
	l-10.691-9.824l-8.098-10.344l-4.584-13.104l-0.455-9.654c0,0-1.223-2.93-1.068-3.621c0.152-0.689,0.152-12.584,0.152-12.584
	s0-4.826,0.916-6.207c0.916-1.379,2.75-10.342,3.057-11.551c0.305-1.207-1.375-9.48-1.375-9.48l0.916-9.139l13.598-14.479
	l12.371-7.068l7.643-11.029l12.219-27.412l11.762-23.445l-0.307-9.482l-1.832-14.307l2.594-14.482l0.307-7.586l-3.209-6.379
	l2.902-11.551l1.836-17.754c0,0,3.357-7.93,3.814-8.793c0.459-0.863,9.777-5.861,9.777-5.861l7.637-9.137c0,0,2.75-7.24,2.75-10.344
	s0.914-10.516,1.068-12.066c0.152-1.553,2.598-6.207,2.598-6.207l0.305-16.208l2.156-10.396l3.344-7.186l3.82-3.967l1.832-1.894
	v-1.036l-152.447-1.034l-1.986,21.204l-2.902,23.447l-3.207,21.375l-7.025,50.855l-7.912,40.857l18.912,27.928l-1.375,5
	l-16.194,53.959c-1.215,4.369-1.271,8.734,0.766,13.104c2.299,4.201-0.28,6.754-1.834,9.652c-2.214,3.09-2.774,6.447-2.14,10
	l16.193,27.238l0.307,4.135l0.455,4.482l1.682,5.688c0,0,1.068,3.795,1.221,4.828c0.15,1.035,2.139,7.238,2.139,7.238l-0.148,5.518
	l-1.529,5.172l-1.07,3.449l-11.613,12.068l-5.807,8.793l-5.189,10.516l-9.931,16.551L409.451,855.561z"/>
<path id="path3189" opacity="0.2" fill="#FFFFFF" stroke="#031089" stroke-width="2" stroke-miterlimit="10" d="M468.743,423.39
	l152.758,1.073l2.096-6.02l0.191-9.029l0.191-11.39l-1.523-5.376c0,0,2.096-8.599,2.283-9.888
	c0.191-1.291,10.287-6.879,10.287-6.879c0.254-1.619,0.508-3.842,0.762-6.019c-1.5-5.07-1.006-6.933,1.906-10.963
	c2.229-1.648,5.225-2.292,4.568-7.738l6.096-4.297l-3.619-5.16l-3.809-4.73c-3.498-0.025-6.299-4.785-9.334-7.953
	c0,0-8.379-9.457-8.762-10.317c-0.383-0.861-8.572-8.167-8.572-8.167l-11.998-4.513l-5.143-1.076
	c-3.791-1.523-6.527-6.021-9.334-10.316c-4.982-5.308-9.264-0.737-12.762-4.945c0.393-2.279,0.959-4.36,0.381-7.738l-4.762-5.157
	l-1.906-6.88l-8.191-6.664l-12.57-7.953l-0.568-7.31l-4-3.439l-4.002-4.514l-2.664-3.439l-2.668,0.215l-2.283-7.095l-9.717-7.309
	l-15.238-8.381l-4.379-7.523l-8.191-5.16c-0.494-8.847-4.621-9.485-7.998-11.822h-5.906l-15.238-15.261
	c-7.066-0.237,1.521-6.609-6.094-8.599c0.271,2.541-9.226-2.401-10.664-4.299c-3.272-2.828-9.579-2.231-14.669-3.01l0.381,17.413
	l-59.237,87.703l93.525,0.215L468.743,423.39z"/>
<path id="path3185" opacity="0.2" fill="#FFFFFF" stroke="#031089" stroke-width="2" stroke-miterlimit="10" d="M211.419,2.068
	c-4.192-2.582-8.38,0.43-8.38,0.43l-0.381,11.392l0.381,5.588c5.526,4.266,2.836,6.8-2.666,9.458l-5.145,1.72
	c-3.508-0.308-4.938,1.735-6.476,3.654l-1.334,4.083c0.363,5.35-1.673,5.458-3.236,7.093c-3.197,1.346-7.453,1.893-7.81,5.375
	l-3.047,5.375l-6.286,5.588l-4.951,4.083l-3.049,6.234l4.001,7.522c5.305,4.89,8.396,9.366,7.619,13.113l-0.763,12.253
	l-1.523,12.037l-4.569,12.683l-2.857,11.609l8,3.654l6.664,7.094l8.573,6.879l4.762,7.31l5.905,2.363
	c4.063-0.85,8.127-0.626,12.192-3.008l3.236-3.01l-0.19-5.589l-1.144-5.806l-0.19-12.253l-1.144-10.748l-1.523-1.934
	c-0.967-1.275,1.618-16.393,4.191-14.618l17.524,11.393l-1.334,7.094l-0.763,10.534l2.667,7.74c9.383,0.18,9.35,6.083,12.762,9.887
	l4.571,9.673l4.762,12.897c5.944,2.189,11.778,3.959,17.905,4.729l6.475-0.213l7.81,6.664c1.186,1.951,4.059,1.883,7.236,2.148
	c4.367-4.036,3.198-9.659,7.429-7.523c10.497,3.821,10.103,5.118,13.143-3.225l5.712,0.214l3.812-6.665
	c4.834-1.564,6.935-6.217,9.904-9.887l3.235-6.018l-0.57-42.346l-13.905-0.215l-6.284,7.094c0,0-2.286-3.225-2.856-4.299
	c-0.573-1.073-2.857-3.225-2.857-3.225c-2.954-2.735-6.508-2.419-10.478,0l-5.523-0.645l-2.857-3.225l-3.235-4.515l-3.238-4.943
	l-1.142-2.795l-0.192-3.439c4.963-7.55,2.444-16.45-3.189-15.996c-3.219,0.259-5.288-0.713-6.524-4.64l-2.855-6.018l-2.857-6.664
	c1.108-1.505-0.595-3.009-2.478-4.513c-3.325-4.22-0.967-5.689-1.143-8.385l3.811-9.458l0.952-8.384
	c1.886-3.871,7.04-7.434,3.428-11.822l-5.335-0.214c-3.173-3.29-6.348-1.277-9.522-0.861l-2.666,1.505l-10.096-1.291l-4.949-0.214
	c-3.201-7.222-7.885-6.632-12.572-6.019l-4.378-0.215C219.716,8.746,216.052,5.067,211.419,2.068z"/>
<path id="path3182" opacity="0.2" fill="#FFFFFF" stroke="#031089" stroke-width="2" stroke-miterlimit="10" d="M94.66,238.738
	l3.429-3.869l0.762-1.719l-6.666-8.812l-5.143-9.887l1.714-7.095l10.094-11.609l-0.762-6.232l2.094-2.364l10.477-6.665
	l38.093-19.777l8.57-4.512l3.239-14.403l7.046,1.505l7.238,8.384l9.714,8.383l3.619,5.16l4.762,3.654l8.571-1.075l8.763-4.728
	l-1.334-23.216l-1.714-12.468c-1.706-5.757-0.301-9.405,0.381-13.544l3.429-0.858c6.091,3.207,10.781,5.252,14.856,9.027
	l1.144,6.662l-0.763,11.822l0.763,6.666l1.904,1.504c3.708-0.808,6.261-0.053,7.429,2.579l6.285,10.318l6.857,14.617
	c0.979,4.283,4.673,6.895,11.236,7.741l10.095,1.29l5.332,1.074l7.62,7.094l6.476,1.291l1.523-5.16l2.478-3.225l5.522,0.646
	l3.429,2.795l2.857,0.215l3.618-4.73l5.906-2.364l2.665-4.73l3.62-2.15l5.523-7.094l5.332-7.309l-0.57-41.917l-4.572-1.074h-7.237
	l-2.665,0.429l-3.62,5.804l-2.666,0.643c0,0-2.284-4.727-2.857-5.803c-0.57-1.074-4.762-3.008-4.762-3.008l-6.856,1.291
	l-5.522,0.861l-2.477-3.655l-4.38-5.803l-3.999-5.162l-1.144-5.589l2.666-6.232l-0.381-6.664l-3.618-3.654l-4.762-0.645
	l-3.809-5.803l-0.954-3.872l-3.428-4.942l-0.19-4.084l-2.095-2.364c-3.377-1.633-2.683-4.579-2.667-7.309l4.191-8.167l1.336-4.516
	c-2.01-8.171,3.751-11.496,3.809-18.271l8.189-2.58l7.427,1.719l5.143,3.87l6.286,1.504l5.143,3.869l4.762,5.803l1.335,4.731
	l3.238,5.374c-1.398,5.589,0.761,12.897,6.474,21.926l4.001-8.167c0,0,1.334-9.029,1.144-9.888c-0.192-0.861,0.19-7.309,0.19-7.309
	l8.381-11.177l6.283-15.263l15.812,0.646l4.379,6.447l5.143-9.028l38.666,3.008l2.478,4.515l6.667,5.589
	c4.824,4.714,9.65,10.117,14.476,16.552c2.957,0.183,6.79-0.949,8.38,1.29l0.19,6.45l0.192,124.246l-63.619,95.443l-14.856-2.795
	l-16.953-0.644c0.253,5.875-4.017,5.113-8.763,3.652c-2.408-0.971-4.759-1.556-6.664,0.861c0,0-0.573,6.449-0.573,7.955
	s-0.57,4.943-0.57,4.943c-1.92,1.786-3.905,3.547-2.857,6.45c-3.019,3.774-2.091,11.193-5.905,15.045
	c-1.141,0-10.475-0.86-10.475-0.86l-5.906-1.073l-4.571,3.008c-3.048-2.432-6.093-1.835-9.144-2.149l-9.711-2.58l-2.101-2.076
	c-4.731-8.939-5.876-4.367-8.758-2.867c-2.084,2.207-4.653,1.16-7.236,0l-5.906-2.364l-1.333,3.225l2.285,6.664v5.804l-3.429,3.008
	l-5.143-2.58l-9.713-5.158l-4.38-0.646l-4.762-4.727c-3.167,0.152-4.735,1.918-6.667,3.868c0,0-2.094,6.663-2.286,7.738
	c-1.121,2.871-3.436,7.03-5.904,5.16c-2.094-1.29-5.714-10.962-5.714-10.962c-7.969-16.764-4.358-11.379-13.713-20.207
	c-2.478-2.58-2.095-10.962-2.095-10.962s0-3.869,1.334-5.16c1.334-1.29,8.19-0.644,8.19-0.644s3.811,1.717,5.144-3.226
	c1.334-4.942,0.379-22.14,0.379-22.14l-22.096-1.291l-31.045,1.074l-17.333,1.505l-15.047-2.794l-10.094-1.936L94.66,238.738z"/>
<path id="path3180" opacity="0.2" fill="#FFFFFF" stroke="#031089" stroke-width="2" stroke-miterlimit="10" d="M275.225,571.922
	l12.762-3.869c4.697-4.402,8.758-8.271,11.428-10.961c-1.191-8.527-3.108-17.053-4.761-25.582l6.476,0.645l-0.57-13.326
	c-1.595-2.055-1.7-3.896,0.763-5.375l-1.144-3.227l-1.523-4.516l0.19-7.52c-7.822-3.656,1.039-11.715-10.856-18.273
	c-7.78-3.148-1.591-11.857-1.713-18.055l-1.715-23.648l-3.238-3.438l-1.142-9.674l-1.336-5.803c-3.061-3.686-6.047-8.35-10.092,1.29
	l-4.764,4.084l-4.189,0.217c-0.986-3.283-4.195-4.79-4.314-7.512c-0.259-5.788-2.878-9.647-6.542,0.203l-2.478-7.74l-5.143-12.037
	v-6.877c5.005-7.763-1.732-8.441-4.572-12.037c-13.524-1.766,1.242-13.103,2.095-19.347c1.944-5.994,1.979-13.186,2.857-18.916
	c-5.495-2.802-11.436-6.609-16-7.31c-3.521-2.096-1.1-7.171-0.38-11.392c5.604-17.112-3.154-29.763-10.855-10.748
	c-2.263,4.905-3.478,11.456-8.38,4.73c-3.068-6.901-6.149-13.816-9.714-21.28l-7.619-5.375l-2.286-12.682
	c-0.566-7.532,3.111-6.685,6.478-6.448l6.478,1.074l2.093-7.955l-0.379-15.693l-0.953-1.932l-25.141-1.507l-26.854,1.291l-20,1.29
	l-14.095-4.085l-16.763-3.652c-6.064-1.29-7.891,1.324-6.856,8.382c0.189,0.861,0.189,6.021,0.189,6.877
	c0,0.861,0.381,11.824,0.381,11.824l1.714,6.021l5.715,7.521c-1.071,5.068-0.999,10.71,2.477,18.056l0.761,10.533L91.62,320.208
	l0.19,11.181l14.857,22.998c2.932,3.246,2.336,7.757-4.191,13.975c-1.714,0.428-14.284,2.579-15.047,2.795
	c-0.763,0.215-9.333-3.871-8.763,3.869c0.571,7.737-0.19,16.552-0.19,16.552l-7.81,11.606l-2.092,8.167l-0.381,6.664l9.522,1.291
	c6.531-0.626,13.016-1.575,19.047-5.589c4.32,0.18,3.926,1.928,4.191,6.45c2.255,5.638,4.517,3.854,4.379,11.607
	c1.591,8.041,13.727,7.152,22.856,8.811c3.568,4.101,7.137,8.196,9.714,13.974c3.867,1.939,8.07,1.771,12.952-2.578
	c3.056,1.527,0.708,2.369,7.048,6.02c7.204-0.004,18.108,6.363,16.381-9.03c0,0,1.333-4.941,3.047-4.941s22.098,3.438,22.098,3.438
	l3.999,3.224l4.761,8.383l4.953,6.449l1.714,2.15l-1.334,10.104l0.761,5.373c0,0,3.43,2.15,4.952,2.363
	c1.523,0.217,6.476,4.73,6.476,4.73s5.145,1.719,6.479,2.365c1.333,0.643,25.141,25.58,25.141,25.58l2.094,16.555l11.049,21.279
	C272.581,560.424,274.127,565.795,275.225,571.922z"/>
<path id="path3178" opacity="0.2" fill="#FFFFFF" stroke="#031089" stroke-width="2" stroke-miterlimit="10" d="M75.613,419.089
	h-6.477l-0.762,5.374l-1.907,4.084c-2.844,4.086-6.001,8.167-5.903,12.253c-0.656,4.395-3.933,8.196-7.049,12.037l-4.762,7.094
	l19.428,23.213c15.072,13.605,14.127,3.227,15.617,24.076c5.925,4.703,2.766,6.703-0.763,8.6c0,0-1.142,12.682-1.334,15.691
	c1.297,4.369-1.047,10.912,8.192,10.533l10.666-2.148l13.525,5.375l14.666,13.326l19.619,20.422l11.618,17.844l3.049,3.438
	l4.95,2.58l5.145,0.861c0,0,1.521,2.795,2.285,3.008c0.763,0.213,10.284,12.896,10.284,12.896l-0.57,8.6l0.763,12.682l1.521,6.879
	l0.952,5.373l1.524,8.602l0.191,5.371c5.272,10.451,10.883,21.596,13.713,27.086c2.067,6.566,5.966,5.371,10.669,4.895
	c5.062-0.51,10.624,8.764,9.9-0.811c2.146-4.486,6.035-1.225,9.714-0.213c2.096-1.811,3.889,1.809,7.226-2
	c2.23-2.545,10.11-2.859,15.062-3.592l-1.907-66.424l21.143-55.242l-1.334-5.375c-1.255-7.4-5.478-13.463-9.144-19.775l-4.761-9.889
	l-2.096-5.59c0.725-3.789,1.185-7.285-0.078-9.861c-5.355-10.93-16.351-16.646-24.682-27.109l-8-3.869l-4.001-3.654l-6.284-0.859
	l-1.523-1.719l0.763-17.197l-2.478-2.58l-2.477-1.504l-4.572-9.244l-3.619-4.945l-11.808-2.577l-14.857,0.215
	c-0.908,8.112,1.842,16.831-11.809,13.327l-6.856-1.721l-3.429-4.082h-4.189l-4.762,3.008c-13.266,0.615-5.427-19.041-30.856-17.41
	c-9.808-1.944-6.919-6.901-7.808-10.964l-3.62-6.021c0.369-4.404-0.312-8.082-6.477-7.953l-8.763,5.589L75.613,419.089
	L75.613,419.089z"/>
<path id="path3176" opacity="0.2" fill="#FFFFFF" stroke="#031089" stroke-width="2" stroke-miterlimit="10" d="M32.946,748.834
	l4.381,2.58l4.38-2.15l4.571-0.43c3.23,1.137,6.411,1.635,9.142-3.441l0.573-10.744l1.141-4.73l6.096-7.738l5.522-4.516
	c6.578,0.955,7.314-2.803,6.857-7.521l5.143-0.43l6.093,1.719l8.38,4.729c0,0,0.573,3.654,0,5.375
	c-1.139,6.551,2.158,9.145,10.666,7.094l5.714-0.215c6.399-4.639,8.129-14.143,20.381-12.684l6.286-0.859l2.665-1.934l2.478,4.514
	l4.189,4.297c0,0,6.478,3.441,7.239,3.441c0.761,0,3.999-0.432,3.999-0.432l3.809-1.072l1.144-4.299l5.522,2.578l4.379,4.732
	c5.883,5.658,3.962,0.902,4.762-0.217l-2.665-5.805l-3.428-5.158l-0.951-20.205h31.997l-2.665-10.965l-5.334-9.457l-3.619-6.232
	c0,0-1.524-7.092-1.524-8.168c0-1.072-1.906-12.252-1.906-12.252l-2.475-10.746l-0.193-17.197
	c-4.132-6.924-8.349-13.803-16.952-18.486l-6.477-1.508l-13.525-20.633l-20.381-21.926l-15.238-12.898l-5.333-3.008l-3.62-1.291
	h-6.477l-6.286,0.43l-2.666,1.074l-3.808-0.861l-2.666-4.514l0.19-8.598l0.952-12.684c7.5-3.008,0.812-6.018,0.192-9.025
	c0,0-0.573-4.945-0.763-5.805c1.071-5.402-1.038-8.113-3.999-10.104c-2.088-0.314-4.401-0.941-10.478-6.877
	c-5.198-5.479-7.492-9.316-10.857-13.756l-5.333-5.807l-4.764-2.148l-3.236,3.223l-0.192,6.021c1.27,4.656-0.623,8.293-2.855,11.822
	l-1.144,5.588c-0.529,4.371-0.631,8.74-2.094,13.113l0.571,5.586c2.383,8.463-3.1,8.959-4.762,14.189l-4.191,4.729l-1.522,1.291
	l-0.573,5.586l3.43,7.955c0,0,1.522,2.15,1.522,3.439c0,1.291,0,5.375,0,6.232c0,0.859,1.715,6.234,1.715,6.234s0,6.232,0,7.094
	c0,0.857-1.144,8.381-1.144,9.672c0,1.289,0.192,4.729,0.381,5.59c4.208,1.023,6.964,1.309,2.667,9.672l-1.714,4.941
	c-0.863,2.666,0.105,8.09-6.479,2.148l-3.428,2.152c0,0-1.905,2.363-1.905,3.225c0,0.859,0.763,5.588,0.763,5.588l-0.573,5.588
	l-4.952,7.955L16.358,636.2l2.287,8.381l-9.713,10.963L6.838,667.37l0.38,10.748l2.094,9.889l2.858,6.447
	c0,0,1.334,1.289,1.521,2.797c1.66,5.996,5.555,6.447,9.714,6.23l2.288,3.652l0.19,4.73l-3.048,3.867
	c-5.052,4.57,0.145,6.814,1.714,10.318c0,0,5.714,5.375,6.286,6.234c0.571,0.861,0.38,7.953,0.38,7.953
	C32.295,742.872,37.306,743.651,32.946,748.834z"/>
<path id="path3187" opacity="0.2" fill="#FFFFFF" stroke="#031089" stroke-width="2" stroke-miterlimit="10" d="M232.561,308.169
	l-5.333-2.149l-0.38,9.888c0,0-1.907,5.16-2.095,6.45c-0.19,1.287-0.763,7.309-0.763,7.309l0.38,4.298h6.096
	c0,0,3.428,2.149,4.38,3.008c10.898,1.732,5.261,8.669,5.143,18.488l-3.999,8.812c0,0-4.382,6.02-4.382,7.309
	c0,1.291,0,4.515,0,4.515l6.478,4.084l3.809,1.72l0.379,6.231c-0.756,3.87-2.248,7.621,0.381,12.037l3.62,9.458
	c3.867,16.505,4.605,2.968,6.667,2.149c3.716,1.262,2.288,2.582,3.047,6.233c0.571,1.72,3.048,5.158,3.048,5.158
	c3.408,5.206,4.631,1.346,6.667,0.861l4.188-4.942c4.296-8.979,6.416-1.607,9.334-0.217c8.055-3.325,11.438-7.311,15.62-11.178
	c-0.381-2.151-3.621-4.729-3.621-4.729l-0.571-2.796l1.336-9.672l0.571-8.385l1.522-3.869c5.194,2.208,3.455-3.411,4-6.449
	l5.713-22.14l3.81-5.16l2.665-4.941l-0.761-3.441c0,0,1.523-2.364,2.284-3.224c0.763-0.86,1.714-5.804,1.714-5.804l-1.714-5.588
	c-1.365-3.493,9.214-17.028-4.761-15.477c0,0-2.479,0-3.239,0s-5.522-1.505-5.522-1.505s-4.379,3.438-5.333,3.652
	c-0.951,0.215-3.809-0.645-3.809-0.645l-5.715-1.291l-4.762-2.58l-5.142-0.217l-4.763-4.083c-2.481-1.076-4.272-5.964-6.286-2.795
	l-5.904-0.644l-7.048,0.427l-1.335,4.944c0,0,0,4.514,0.572,5.375c2.207,9.77-1.953,8.314-7.81,3.869L232.561,308.169z"/>
<path id="FO" opacity="0.2" fill="#FFFFFF" stroke="#031089" stroke-width="2" stroke-miterlimit="10" d="M433.316,53.014
	c5.205,7.023,8.343,14.628,15.619,21.066c1.144,2.438,2.285,2.247,3.428,7.738c6.852,5.607,13.984,10.26,20.383,17.413
	c2.438,4.151,4.199,10.274,10.475,11.178c8.041,0.761,5.055,2.995,7.621,4.73c3.99,1.385,8.49,2.273,8.57,7.523
	c3.648,6.679,7.414,13.28,17.521,15.476l9.145,11.824c9.801,3.01,15.332,17.295,19.617,9.029c8.918-3.688,10.787,0.579,13.334,4.083
	h5.334l6.096,2.581c26.771,5.279,27.863,16.767,45.143,27.729l4.949,1.506l9.523,6.449c10.725-0.826,15.83,5.336,25.711,13.326
	l4.953,0.215l15.809,7.955l11.236,12.253l3.811,4.084v3.225l4.191,5.158l1.141,3.01c-14.471,23.761-10.965,5.15-15.617,24.505
	c-7.314,17.272-16.512,22.959-21.904,35.898l-0.951,7.094c0.586,13.645-1.83,8.158-5.523,20.637l-4.188,7.308l-7.24-8.384
	c-5.27-1.964-8.959-8.388-13.332-12.896l-6.475-7.739c-3.039-3.366-8.824-6.733-14.859-10.103
	c-8.963-1.515-11.643-1.688-16.76-7.953c-1.492-4.339-4.668-6.771-9.715-7.094c-6.615-0.078-3.828-5.896-5.145-10.534
	c-0.568-0.86-4.379-3.654-4.379-3.654l-4.951-9.455c-1.613-2.864-3.793-4.934-7.428-4.945c0,0-3.238-4.298-4.189-4.943
	c-0.953-0.644-5.713-2.364-5.713-2.364c0.037-4.32-0.451-7.964-2.666-10.316l-6.666-7.094c-3.084,0.516-5.104-2.977-6.668-8.167
	l-6.477-5.804l-4.951-2.363l-11.619-7.523l-5.141-6.018l-8.381-6.88c-3.686-2.104-0.006-10.581-14.857-12.896l-5.715-5.375
	c-3.637-3.862-7.227-8.198-11.09-9.739c-0.984-0.389-1.791,0.903-3.004-0.58c2.428-7.289-1.906-8.432-8.57-7.738
	c-1.106-4.504-5.333-5.931-10.475-6.451l-8.764,0.215L433.316,53.014z"/>
<g id="g3269" transform="matrix(1.7071538,0,0,1.8109587,-173.75729,-511.27245)" opacity="0.2">
	<path id="path3195" fill="#FFFFFF" stroke="#031089" stroke-width="2" stroke-miterlimit="10" d="M483.526,487.301l12.088,1.101
		l10.245,4.41l10.018,2.081l5.18,2.695l7.712,3.306l3.454,0.49c-0.818-2.471,1.047-2.799,1.611-4.164
		c1.194-1.907,2.763-2.21,4.722-0.857l1.842,4.286l2.303-1.225l3.224-5.021l6.216-2.818l5.41,2.45l-1.955,3.307
		c0,0,0.343,1.837,0.343,2.572c0,0.736-0.114,4.288-0.114,4.288l0.805,2.939l2.763,4.287l1.959,1.715l0.344,2.449l3.11,3.675
		l1.842,2.694l0.69,3.063l-2.532,3.061c-1.818,3.87-1.845,2.54-4.606,5.389c-0.228,0.49-1.61,2.327-1.61,2.327l-2.417,1.101
		c0,0-1.265,2.45-1.611,2.939c-0.346,0.49-2.649,1.593-2.649,1.593l-2.072,2.448l-3.34,4.656c0,0-1.498,3.308-2.189,4.041
		c-0.691,0.737-3.337,3.796-3.337,3.796l-3.453,1.348l-1.611,2.206l-2.073,2.817l-0.805,3.796c0,0-2.534,2.694-2.993,3.43
		c-0.459,0.735-2.072,2.694-2.072,2.694l-2.534,0.613c-1.562-0.481-1.406,1.599-1.496,3.308l-2.532,2.082l-3.568,2.817
		c-2.074,0.345-3.294,1.372-4.144,2.693l-0.69,1.592c0,0-1.728,0.369-1.959,0.857c-0.231,0.49-0.347,2.819-0.347,2.819
		s0,2.45-0.459,2.694c-0.459,0.245-3.338,2.818-3.338,2.818l-2.763,1.348l-2.417,1.224l-1.38,2.572l-1.381,4.408l-2.416,4.164
		c0,0-1.729,2.206-1.843,2.939c-0.117,0.737-0.809,4.409-0.809,4.409l-3.566-6.492v-4.9l-4.262-2.572l-1.841-2.45l-2.304-1.591
		l-5.295-1.47l-5.525,0.857l-5.067,2.45l-4.834-0.613l-3.34,1.47l-3.798,1.348l-5.414,0.123l-4.375-0.98l-3.335,1.837l-1.153,0.368
		l1.037-7.226c0,0,1.035-3.796,1.035-4.409c0-0.611-1.381-4.777-1.498-5.387c-0.113-0.614-0.46-3.554,0.117-4.41
		c0.574-0.856,2.762-8.205,2.532-8.94c-0.23-0.736,0.46-7.471,0.46-7.471c0.632-3.223,4.209-4.195,6.679-5.512l5.986-5.88
		l1.034-7.226l0.576-5.267l0.577-1.714l0.691-4.288l0.117-6.245l2.302-7.716l2.992-3.796c0,0,2.303-2.572,2.303-3.43
		c0-0.858,1.151-6.613,1.035-7.227c-0.117-0.612-0.69-4.775-0.69-4.775l-0.347-6.86c0,0,1.038-2.327,1.269-2.817
		C472.315,490.221,477.358,488.261,483.526,487.301z"/>
</g>
<path id="path3201" opacity="0.2" fill="#FFFFFF" stroke="#031089" stroke-width="2" stroke-miterlimit="10" d="M634.01,830.79
	l-3.34-14.197l2.945-21.518l2.951-10.422l3.73-12.865l9.041-2.441l4.324-4.879l-1.768-21.074l-3.344-13.309l3.537-12.42l2.754-5.324
	l-3.146-9.092l0.982-7.541l-0.982-4.434l-0.391-5.105l7.857-6.43l2.361-10.205l0.783-4.656l-1.768-3.326l0.195-3.994l5.504-7.98
	l3.541-12.422l2.355-20.627l-0.785-9.094l-2.555-5.768l-5.699-10.865l0.393-7.766l-8.449-4.662l-4.523-5.766l-5.107-1.773
	l-9.436-1.553l-6.484,1.33l-6.684,3.104l-3.732,0.668l-6.092-0.668l-3.537,1.998l-6.096,2.66l-8.252,0.441l-3.344,0.889
	l-6.486-2.441l-8.646,5.102l0.783,19.074l-2.748,9.541l-5.307,10.426c0,0-11.203,19.074-11.203,19.961
	c0,0.889-7.074,15.527-7.074,15.527l-14.15,11.76l-10.418,9.758l-4.324,10.201l-0.195,11.531l-1.77,14.641l-2.164,14.42
	l2.359,15.082c0,0,1.18,9.535,1.965,9.092c0.783-0.445,8.453,12.42,8.453,12.42l8.844,8.873l17.1,19.299l13.76,7.539l3.34,5.1
	l9.238,3.33l6.486,7.32l8.057,1.332l7.664,3.104l10.418,1.996l5.895,3.77l5.896,4.215l4.521,0.223L634.01,830.79z"/>
<path id="path3228" opacity="0.2" fill="#FFFFFF" stroke="#031089" stroke-width="2" stroke-miterlimit="10" d="M778.641,383.208
	l-2.088,3.869l-1.342,4.375c0,0,0.297,3.869,0.297,5.551c0,1.685-0.297,6.396-0.297,7.065c0,0.671,2.236,3.701,2.236,3.701
	l7.303,10.601c0,0-0.145,3.869,0.15,4.709c0.299,0.842,2.832,5.213,4.025,6.393c1.189,1.178,3.727,5.888,3.727,5.888
	s2.385,1.851,4.023,0.841c1.643-1.009,5.518,1.01,5.518,1.01l3.131-2.86l3.578-6.224l6.408-6.227l4.027-2.019h5.664l4.469-6.393
	l3.879-1.346l1.49-4.376l6.111-5.72l6.26-3.533l6.26-2.354l3.875-1.852l4.621-2.019l0.746-1.009l5.066-0.168l3.283-0.334
	l4.172-8.414l4.324-1.01l3.129-1.515l0.299-1.852l2.982-3.026l4.025-1.009l1.639-2.02l3.131,3.196l2.236-0.843l0.299-2.86
	l5.363-6.896l2.088-4.205l0.445-3.702l-0.596-1.682l-1.189-1.179l0.295-3.868l-1.49-2.019l-0.297-5.551l2.086-11.273l1.041-2.858
	l1.791-4.71c0,0-0.299-6.896-0.299-7.907c0-1.009,0-7.403,0-7.403l-3.727-6.729l-3.277-4.038c0,0-0.148-4.374-0.148-5.551
	c0-1.177-0.449-8.579-0.449-9.253c0-0.673,0.449-4.038-0.146-4.542c-0.6-0.504-3.879-5.214-3.879-5.214l-2.684-5.047l-1.787-3.364
	l-2.385,0.673c0,0-2.236,1.009-2.98,0.505c-0.748-0.505-2.686-2.524-2.686-2.524s-0.744-0.504-1.49-0.334
	c-0.746,0.167-3.727,3.533-3.727,3.533l-1.789,1.343L873,267.13c0,0-0.895-2.019-1.641-1.178c-0.746,0.841-4.324,3.027-4.324,3.027
	l-4.32-2.354l-1.641-1.682h-3.578c0,0,0.299,2.187,0.299,3.196c0,1.009-0.449,3.701-1.189,5.047
	c-0.744,1.345-2.686,4.878-2.686,4.878s-0.148,2.691,0.148,4.205c0.299,1.515,3.277,4.711,3.277,4.711s-0.145,3.196-0.594,4.038
	c-0.449,0.84-1.789,3.7-1.789,3.7s-1.344,2.691-1.492,4.038c-0.146,1.345-0.146,2.354-0.146,4.037s0,2.019,0,4.206
	c0,2.185-0.15,3.364-0.299,4.203s-1.189,4.713-1.49,5.554c-0.301,0.84-0.896,2.523-1.193,4.542c-0.295,2.019-0.895,2.691-1.34,3.366
	c-0.449,0.672-2.088,3.532-2.088,3.532s-1.342,2.019-1.787,2.69c-0.449,0.676-1.492,2.188-1.492,2.188s-0.148,0.842-0.148,2.354
	c0,1.516,0,2.186,0,3.194s-0.148,1.853-0.148,1.853l-2.832,0.505l-3.428-0.505c0,0-2.531,3.026-2.531,4.036s0.742,1.686,0.742,1.686
	l-2.385,3.531l-4.473-0.166c0,0-2.83,2.018-3.43,2.354c-0.594,0.337-1.936,0.673-2.531,2.02c-0.598,1.346-0.746,6.393-0.746,6.393
	l-2.832,0.507c0,0-10.137-0.336-10.73,0c-0.6,0.337-2.088,1.515-2.088,2.353c0,0.845,1.342,6.395,1.342,6.395l-4.77,0.337
	l-2.238,2.691l-1.041,3.195c0,0-1.938,0-1.789,1.011c0.15,1.009,1.492,2.858,1.639,3.7c0.15,0.841-2.682,3.027-3.277,3.532
	c-0.598,0.508-1.492,2.021-2.832,2.526c-1.344,0.505-2.982,1.178-3.877,0.505c-0.896-0.673-3.727-2.523-3.727-2.523l-5.516-3.701
	L778.641,383.208z"/>
<path id="path3193" opacity="0.2" fill="#FFFFFF" stroke="#031089" stroke-width="2" stroke-miterlimit="10" d="M446.711,581.038
	l-24.37-1.111c-0.162-1.785-0.951-3.111-1.388-4.613c-0.503-1.723,0.102-4.088-0.381-5.365c6.857-12.984-3.277-10.928-8.646-13.975
	c-4.104-3.02-2.715-8.699-3.539-13.309h-11.399l-13.759,0.223c-5.32-0.252-8.365-2.342-10.021-5.547
	c0.329-3.477-1.436-3.016-2.555-3.77c-10.781,3.746-11.821,2.859-16.32-2.434c-5.132-1.586-4.302,5.307-10.016-0.893l-8.057-2.221
	l-10.022,0.445l-11.792,0.664l-13.562,2.221l0.394-7.986l-2.751-6.211c7.506-7.721,0.498-2.936,0.982-12.643
	c1.61-4.174-1.677-6.258-4.521-9.316v-7.982c-0.363-1.744-7.436-7.816-11.204-11.758l0.984-11.088
	c0.392-6.73,0.784-13.458,1.181-20.185l-2.558-8.432l-2.75-2.661l-0.786-10.867l-0.59-3.771c4.729-2.524,8.66-2.112,15.331-11.756
	l-4.325-5.767l2.752-21.517c2.603,0.086,5.256,0.309,5.306-7.099c0.736-5.252,3.537-14.49,4.914-22.625
	c1.656-3.597,7.652-5.937,5.689-11.346c-0.345-0.947,0.525-2.256,0.008-3.515c5.305-1.727,4.136-8.325,3.342-14.64l1.375-15.525
	l5.896-14.862c0,0,2.161-3.549,2.75-4.435c0.591-0.888,0.393-7.983,0.393-7.983l1.769-6.656l2.948-0.666l3.341,1.554l6.683,1.33
	l0.784-3.77l11.989-1.552l12.185,1.995l7.074,1.775l5.897-7.982l7.271,0.442l85.299-0.666l1.18,160.145
	C462.831,475.903,456.608,528.469,446.711,581.038z"/>
</svg>
