<?xml version="1.0" encoding="utf-8"?>
<!-- Generator: Adobe Illustrator 16.2.1, SVG Export Plug-In . SVG Version: 6.00 Build 0)  -->
<!DOCTYPE svg PUBLIC "-//W3C//DTD SVG 1.1 Tiny//EN" "http://www.w3.org/Graphics/SVG/1.1/DTD/svg11-tiny.dtd">
<svg version="1.1" baseProfile="tiny"
	 id="svg2" xmlns:dc="http://purl.org/dc/elements/1.1/" xmlns:cc="http://creativecommons.org/ns#" xmlns:rdf="http://www.w3.org/1999/02/22-rdf-syntax-ns#" xmlns:svg="http://www.w3.org/2000/svg" xmlns:sodipodi="http://sodipodi.sourceforge.net/DTD/sodipodi-0.dtd" xmlns:inkscape="http://www.inkscape.org/namespaces/inkscape" inkscape:version="0.47 r22583" sodipodi:docname="Argentina-geo-stub icon.svg"
	 xmlns="http://www.w3.org/2000/svg" xmlns:xlink="http://www.w3.org/1999/xlink" x="0px" y="0px" width="902.868px"
	 height="902.868px" viewBox="5.404 -0.412 902.868 902.868" xml:space="preserve">
<path id="path3166" fill="#FFFFFF" stroke="#918880" stroke-width="3" stroke-miterlimit="10" d="M445.189,580.307l-22.729,0.215
	l0.38-5.587l-1.906-3.225l-0.19-2.796l2.095-4.299l-0.38-3.654l-13.143-7.309l-0.763-2.795v-6.877
	c-11.35-1.018-22.672-2.073-33.523-3.652l-1.904-1.076l-0.572-4.084l-4.763-0.861l-3.237,1.291l-5.143-0.217l-5.905-3.008
	l-4.379-0.217l-2.666,1.291l-3.048-3.226l-8-2.148l-20.381,0.43l-15.43,2.363l-4.949,1.505l1.143,6.664l3.807,12.681l-1.141,6.449
	L286.461,568.7l-11.809,2.364l-20.762,58.252l1.904,63.628l11.428,2.579l9.715,8.383l6.093,8.6l3.051,10.747l9.521-1.075
	l1.715,1.291l-0.19,2.579l0.379,3.225l1.716,1.289l0.761,4.085l-2.094,4.729l-0.381,5.375l0.381,7.308l-1.522,4.943l-0.764,5.588
	l-1.522,6.449v5.159l-2.666,4.297l-3.999,2.152l2.095,29.877c1.334,28.383,2.665,60.046,3.999,90.499
	c31.801-1.267,64.04-2.479,91.427-4.298l-0.573-42.133l26.285,0.43l35.425-65.562l7.43-10.962l9.713-10.315l2.096-6.449l0.762-5.159
	l-2.285-8.383l-2.284-11.608l-1.715-7.309l-3.238-7.095l-4.762-9.026l-4.001-7.095l-3.428-4.943l-0.762-4.513l0.762-3.009
	l4.19-6.234l0.57-4.297l-2.665-6.449l-0.763-3.009l1.144-5.805l6.856-21.493l10.095-33.751l1.144-3.008L445.189,580.307z"/>
<path id="path3224" fill="#FFFFFF" stroke="#918880" stroke-width="3" stroke-miterlimit="10" d="M409.451,855.561l58.658,0.172
	l42.922-57.06c3.427-4.468,8.392-2.078,12.681-0.516c2.967,2.022,5.728,2.899,7.483-1.897l7.944-11.723l4.43-6.725l-10.692-9.824
	l-8.097-10.344l-4.585-13.103l-0.455-9.653c0,0-1.222-2.931-1.068-3.621c0.152-0.691,0.152-12.585,0.152-12.585s0-4.827,0.916-6.207
	c0.917-1.379,2.751-10.342,3.058-11.55c0.304-1.207-1.375-9.481-1.375-9.481l0.915-9.138l13.599-14.48l12.371-7.068l7.641-11.03
	l12.22-27.411l11.761-23.446l-0.306-9.481l-1.833-14.308l2.595-14.482l0.307-7.585l-3.209-6.38l2.902-11.551l1.835-17.753
	c0,0,3.357-7.93,3.815-8.793s9.777-5.862,9.777-5.862l7.637-9.137c0,0,2.749-7.24,2.749-10.343c0-3.104,0.915-10.516,1.069-12.067
	c0.153-1.552,2.597-6.207,2.597-6.207l0.306-16.207l2.155-10.396l3.345-7.185l3.819-3.967l1.833-1.894v-1.036l-152.448-1.034
	l-1.985,21.204l-2.902,23.446l-3.208,21.375l-7.026,50.857l-7.911,40.857l18.911,27.928l-1.374,5l-16.194,53.958
	c-1.215,4.369-1.271,8.734,0.765,13.104c2.299,4.201-0.28,6.754-1.833,9.652c-2.214,3.091-2.775,6.447-2.14,10l16.193,27.238
	l0.306,4.136l0.456,4.482l1.681,5.688c0,0,1.068,3.794,1.221,4.828c0.15,1.035,2.139,7.238,2.139,7.238l-0.15,5.517l-1.528,5.173
	l-1.07,3.448L451.612,780.4l-5.806,8.793l-5.19,10.517l-9.93,16.551L409.451,855.561z"/>
<path id="path3189" fill="#FFFFFF" stroke="#918880" stroke-width="3" stroke-miterlimit="10" d="M468.743,423.39l152.757,1.073
	l2.096-6.02l0.191-9.029l0.191-11.39l-1.522-5.376c0,0,2.095-8.598,2.283-9.887c0.191-1.291,10.286-6.879,10.286-6.879
	c0.255-1.619,0.508-3.842,0.763-6.019c-1.501-5.07-1.007-6.932,1.906-10.963c2.228-1.648,5.224-2.292,4.569-7.738l6.095-4.297
	l-3.62-5.16l-3.808-4.73c-3.497-0.026-6.298-4.786-9.333-7.953c0,0-8.38-9.458-8.763-10.318c-0.383-0.861-8.571-8.167-8.571-8.167
	l-11.999-4.513l-5.143-1.076c-3.79-1.523-6.526-6.02-9.333-10.316c-4.982-5.308-9.265-0.737-12.762-4.945
	c0.393-2.279,0.958-4.36,0.381-7.738l-4.762-5.157l-1.907-6.88l-8.191-6.664l-12.57-7.953l-0.569-7.31l-3.999-3.439l-4.003-4.514
	l-2.664-3.439l-2.668,0.215l-2.283-7.095l-9.716-7.309l-15.238-8.381l-4.379-7.523l-8.191-5.16
	c-0.495-8.847-4.621-9.485-7.998-11.822h-5.907l-15.238-15.261c-7.067-0.237,1.521-6.609-6.094-8.599
	c0.272,2.541-9.226-2.401-10.664-4.299c-3.272-2.828-9.579-2.231-14.669-3.01l0.381,17.413l-59.237,87.703l93.524,0.215
	L468.743,423.39z"/>
<path id="path3185" fill="#FFFFFF" stroke="#918880" stroke-width="3" stroke-miterlimit="10" d="M211.419,2.068
	c-4.192-2.582-8.38,0.43-8.38,0.43l-0.381,11.392l0.381,5.588c5.526,4.266,2.836,6.8-2.666,9.458l-5.145,1.72
	c-3.508-0.308-4.938,1.735-6.476,3.654l-1.334,4.083c0.363,5.35-1.673,5.458-3.236,7.093c-3.197,1.346-7.453,1.893-7.81,5.375
	l-3.047,5.375l-6.286,5.588l-4.951,4.083l-3.049,6.234l4.001,7.522c5.305,4.89,8.396,9.366,7.619,13.113l-0.763,12.253
	l-1.523,12.037l-4.569,12.683l-2.857,11.609l8,3.654l6.664,7.094l8.573,6.879l4.762,7.31l5.905,2.363
	c4.063-0.85,8.127-0.626,12.192-3.008l3.236-3.01l-0.19-5.589l-1.144-5.806l-0.19-12.253l-1.144-10.748l-1.523-1.934
	c-0.967-1.275,1.618-16.393,4.191-14.618l17.524,11.393l-1.334,7.094l-0.763,10.534l2.667,7.74c9.383,0.18,9.35,6.083,12.762,9.887
	l4.571,9.673l4.762,12.897c5.944,2.189,11.778,3.959,17.905,4.729l6.475-0.213l7.81,6.664c1.186,1.951,4.059,1.883,7.236,2.148
	c4.367-4.036,3.198-9.659,7.429-7.523c10.497,3.821,10.103,5.118,13.143-3.225l5.712,0.214l3.812-6.665
	c4.834-1.564,6.935-6.217,9.904-9.887l3.235-6.018l-0.57-42.346l-13.905-0.215l-6.284,7.094c0,0-2.286-3.225-2.856-4.299
	c-0.573-1.073-2.857-3.225-2.857-3.225c-2.954-2.735-6.508-2.419-10.478,0l-5.523-0.645l-2.857-3.225l-3.235-4.515l-3.238-4.943
	l-1.142-2.795l-0.192-3.439c4.963-7.55,2.444-16.45-3.189-15.996c-3.219,0.259-5.288-0.713-6.524-4.64l-2.855-6.018l-2.857-6.664
	c1.108-1.505-0.595-3.009-2.478-4.513c-3.325-4.22-0.967-5.689-1.143-8.385l3.811-9.458l0.952-8.384
	c1.886-3.871,7.04-7.434,3.428-11.822l-5.335-0.214c-3.173-3.29-6.348-1.277-9.522-0.861l-2.666,1.505l-10.096-1.291l-4.949-0.214
	c-3.201-7.222-7.885-6.632-12.572-6.019l-4.378-0.215C219.716,8.746,216.052,5.067,211.419,2.068z"/>
<path id="path3182" fill="#FFFFFF" stroke="#918880" stroke-width="3" stroke-miterlimit="10" d="M94.66,238.738l3.429-3.869
	l0.762-1.719l-6.666-8.812l-5.143-9.887l1.714-7.095l10.094-11.609l-0.762-6.232l2.094-2.364l10.477-6.665l38.093-19.777l8.57-4.512
	l3.239-14.403l7.046,1.505l7.238,8.384l9.714,8.383l3.619,5.16l4.762,3.654l8.571-1.075l8.763-4.728l-1.334-23.216l-1.714-12.468
	c-1.706-5.757-0.301-9.405,0.381-13.544l3.429-0.858c6.091,3.207,10.781,5.252,14.856,9.027l1.144,6.662l-0.763,11.822l0.763,6.666
	l1.904,1.504c3.708-0.808,6.261-0.053,7.429,2.579l6.285,10.318l6.857,14.617c0.979,4.283,4.673,6.895,11.236,7.741l10.095,1.29
	l5.332,1.074l7.62,7.094l6.476,1.291l1.523-5.16l2.478-3.225l5.522,0.646l3.429,2.795l2.857,0.215l3.618-4.73l5.906-2.364
	l2.665-4.73l3.62-2.15l5.523-7.094l5.332-7.309l-0.57-41.917l-4.572-1.074h-7.237l-2.665,0.429l-3.62,5.804l-2.666,0.643
	c0,0-2.284-4.727-2.857-5.803c-0.57-1.074-4.762-3.008-4.762-3.008l-6.856,1.291l-5.522,0.861l-2.477-3.655l-4.38-5.803
	l-3.999-5.162l-1.144-5.589l2.666-6.232l-0.381-6.664l-3.618-3.654l-4.762-0.645l-3.809-5.803l-0.954-3.872l-3.428-4.942
	l-0.19-4.084l-2.095-2.364c-3.377-1.633-2.683-4.579-2.667-7.309l4.191-8.167l1.336-4.516c-2.01-8.171,3.751-11.496,3.809-18.271
	l8.189-2.58l7.427,1.719l5.143,3.87l6.286,1.504l5.143,3.869l4.762,5.803l1.335,4.731l3.238,5.374
	c-1.398,5.589,0.761,12.897,6.474,21.926l4.001-8.167c0,0,1.334-9.029,1.144-9.888c-0.192-0.861,0.19-7.309,0.19-7.309l8.381-11.177
	l6.283-15.263l15.812,0.646l4.379,6.447l5.143-9.028l38.666,3.008l2.477,4.515l6.667,5.589c4.824,4.714,9.651,10.117,14.476,16.552
	c2.957,0.183,6.79-0.949,8.38,1.29l0.19,6.45l0.192,124.246l-63.618,95.443l-14.856-2.795l-16.953-0.644
	c0.253,5.875-4.017,5.113-8.763,3.652c-2.408-0.971-4.759-1.556-6.664,0.861c0,0-0.573,6.449-0.573,7.955
	c0,1.506-0.57,4.943-0.57,4.943c-1.92,1.786-3.905,3.547-2.857,6.45c-3.019,3.774-2.091,11.193-5.905,15.046
	c-1.141,0-10.475-0.861-10.475-0.861l-5.906-1.073l-4.571,3.008c-3.048-2.432-6.093-1.835-9.144-2.15l-9.711-2.58l-2.101-2.076
	c-4.731-8.939-5.876-4.367-8.758-2.867c-2.084,2.207-4.653,1.16-7.236,0l-5.906-2.364l-1.333,3.225l2.285,6.664v5.804l-3.429,3.008
	l-5.143-2.58l-9.713-5.158l-4.38-0.646l-4.762-4.727c-3.167,0.152-4.735,1.918-6.667,3.868c0,0-2.094,6.663-2.286,7.738
	c-1.121,2.871-3.436,7.03-5.904,5.16c-2.094-1.29-5.714-10.962-5.714-10.962c-7.969-16.764-4.358-11.379-13.713-20.207
	c-2.478-2.58-2.095-10.962-2.095-10.962s0-3.869,1.334-5.16c1.334-1.29,8.19-0.644,8.19-0.644s3.811,1.717,5.144-3.226
	c1.334-4.942,0.379-22.14,0.379-22.14l-22.096-1.291l-31.045,1.074l-17.333,1.505l-15.047-2.794l-10.094-1.936L94.66,238.738z"/>
<path id="path3180" fill="#FFFFFF" stroke="#918880" stroke-width="3" stroke-miterlimit="10" d="M275.225,571.922l12.762-3.869
	c4.697-4.402,8.758-8.271,11.428-10.961c-1.191-8.527-3.108-17.053-4.761-25.581l6.476,0.644l-0.57-13.327
	c-1.595-2.054-1.7-3.896,0.763-5.375l-1.144-3.225l-1.523-4.516l0.19-7.521c-7.822-3.656,1.039-11.713-10.856-18.273
	c-7.78-3.148-1.591-11.857-1.713-18.055l-1.715-23.647l-3.238-3.439l-1.142-9.673l-1.336-5.803c-3.061-3.686-6.047-8.35-10.092,1.29
	l-4.764,4.084l-4.189,0.217c-0.986-3.284-4.195-4.79-4.314-7.512c-0.259-5.788-2.878-9.648-6.542,0.203l-2.478-7.74l-5.143-12.037
	v-6.877c5.005-7.763-1.732-8.442-4.572-12.037c-13.524-1.766,1.242-13.103,2.095-19.347c1.944-5.994,1.979-13.186,2.857-18.916
	c-5.495-2.802-11.436-6.609-16-7.31c-3.521-2.095-1.1-7.17-0.38-11.391c5.604-17.112-3.154-29.763-10.855-10.748
	c-2.263,4.905-3.478,11.456-8.38,4.73c-3.068-6.901-6.149-13.816-9.714-21.28l-7.619-5.375l-2.286-12.682
	c-0.566-7.532,3.111-6.685,6.477-6.448l6.478,1.074l2.093-7.955l-0.379-15.693l-0.953-1.932l-25.141-1.507l-26.854,1.291l-20,1.29
	l-14.095-4.085l-16.763-3.652c-6.064-1.29-7.891,1.324-6.856,8.382c0.189,0.861,0.189,6.021,0.189,6.877
	c0,0.861,0.381,11.824,0.381,11.824l1.714,6.021l5.715,7.521c-1.071,5.068-0.999,10.71,2.477,18.056l0.761,10.533L91.62,320.208
	l0.19,11.181l14.857,22.998c2.932,3.246,2.336,7.757-4.191,13.974c-1.714,0.428-14.284,2.579-15.047,2.795
	c-0.763,0.215-9.333-3.871-8.763,3.869c0.571,7.738-0.19,16.552-0.19,16.552l-7.81,11.607l-2.092,8.167l-0.381,6.664l9.522,1.291
	c6.531-0.626,13.016-1.576,19.047-5.589c4.32,0.18,3.926,1.928,4.191,6.45c2.255,5.638,4.517,3.855,4.379,11.607
	c1.591,8.041,13.727,7.153,22.856,8.811c3.568,4.101,7.137,8.196,9.714,13.974c3.867,1.939,8.07,1.772,12.952-2.579
	c3.056,1.529,0.708,2.37,7.048,6.02c7.204-0.004,18.108,6.363,16.381-9.029c0,0,1.333-4.942,3.047-4.942
	c1.714,0,22.098,3.439,22.098,3.439l3.999,3.223l4.761,8.384l4.953,6.448l1.714,2.152l-1.334,10.102l0.761,5.374
	c0,0,3.43,2.151,4.952,2.364c1.523,0.215,6.476,4.73,6.476,4.73s5.145,1.719,6.479,2.364c1.333,0.644,25.141,25.58,25.141,25.58
	l2.094,16.555l11.049,21.279C272.581,560.424,274.127,565.795,275.225,571.922z"/>
<path id="path3178" fill="#FFFFFF" stroke="#918880" stroke-width="3" stroke-miterlimit="10" d="M75.613,419.089h-6.477
	l-0.762,5.374l-1.907,4.084c-2.844,4.086-6.001,8.167-5.903,12.253c-0.656,4.394-3.933,8.196-7.049,12.037l-4.762,7.093
	l19.428,23.214c15.072,13.604,14.127,3.225,15.617,24.075c5.925,4.703,2.766,6.704-0.763,8.599c0,0-1.142,12.683-1.334,15.693
	c1.297,4.368-1.047,10.911,8.192,10.533l10.666-2.149l13.525,5.374l14.666,13.327l19.619,20.421l11.618,17.844l3.049,3.438
	l4.95,2.581l5.145,0.86c0,0,1.521,2.796,2.285,3.009c0.763,0.212,10.284,12.896,10.284,12.896l-0.57,8.6l0.763,12.681l1.521,6.879
	l0.952,5.374l1.524,8.6l0.191,5.372c5.272,10.451,10.883,21.595,13.713,27.086c2.067,6.566,5.966,5.371,10.669,4.894
	c5.062-0.51,10.624,8.764,9.9-0.81c2.146-4.486,6.035-1.225,9.714-0.214c2.096-1.809,3.889,1.809,7.226-2
	c2.23-2.544,10.11-2.858,15.062-3.59l-1.907-66.424l21.143-55.243l-1.334-5.374c-1.255-7.401-5.478-13.464-9.144-19.776
	l-4.761-9.889l-2.096-5.589c0.725-3.789,1.185-7.287-0.078-9.863c-5.355-10.929-16.351-16.646-24.682-27.109l-8-3.869l-4.001-3.654
	l-6.284-0.859l-1.523-1.72l0.763-17.197l-2.478-2.58l-2.477-1.504l-4.572-9.243l-3.619-4.945l-11.808-2.578l-14.857,0.215
	c-0.908,8.112,1.842,16.831-11.809,13.326l-6.856-1.719l-3.429-4.083h-4.19l-4.762,3.008c-13.266,0.615-5.427-19.04-30.856-17.41
	c-9.808-1.944-6.919-6.901-7.808-10.963l-3.62-6.021c0.369-4.404-0.312-8.082-6.477-7.953l-8.763,5.589H75.613V419.089z"/>
<path id="path3176" fill="#FFFFFF" stroke="#918880" stroke-width="3" stroke-miterlimit="10" d="M32.946,748.835l4.381,2.58
	l4.38-2.15l4.571-0.43c3.23,1.137,6.411,1.634,9.142-3.442l0.573-10.744l1.141-4.731l6.096-7.738l5.522-4.516
	c6.578,0.956,7.314-2.803,6.857-7.52l5.143-0.43l6.093,1.718l8.38,4.729c0,0,0.573,3.654,0,5.374
	c-1.139,6.551,2.158,9.146,10.666,7.095l5.714-0.216c6.399-4.639,8.129-14.142,20.381-12.683l6.286-0.859l2.665-1.934l2.478,4.514
	l4.189,4.297c0,0,6.478,3.44,7.239,3.44c0.761,0,3.999-0.43,3.999-0.43l3.809-1.072l1.144-4.3l5.522,2.579l4.379,4.731
	c5.883,5.658,3.962,0.904,4.762-0.216l-2.665-5.804l-3.428-5.159l-0.951-20.205h31.997l-2.665-10.965l-5.334-9.456l-3.619-6.233
	c0,0-1.524-7.093-1.524-8.168c0-1.072-1.906-12.253-1.906-12.253l-2.475-10.746l-0.193-17.197
	c-4.132-6.924-8.349-13.803-16.952-18.486l-6.477-1.507l-13.525-20.634l-20.381-21.925l-15.238-12.898l-5.333-3.008l-3.62-1.291
	h-6.477l-6.286,0.43l-2.666,1.074l-3.808-0.861l-2.666-4.514l0.19-8.599l0.952-12.683c7.5-3.008,0.812-6.018,0.192-9.026
	c0,0-0.573-4.945-0.763-5.804c1.071-5.402-1.038-8.114-3.999-10.104c-2.088-0.314-4.401-0.94-10.478-6.877
	c-5.198-5.478-7.492-9.316-10.857-13.756l-5.333-5.805l-4.764-2.15l-3.236,3.223l-0.192,6.021c1.27,4.657-0.623,8.293-2.855,11.824
	l-1.144,5.586c-0.529,4.372-0.631,8.741-2.094,13.115l0.571,5.586c2.383,8.463-3.1,8.958-4.762,14.188l-4.191,4.73l-1.522,1.291
	l-0.573,5.586l3.43,7.955c0,0,1.522,2.149,1.522,3.439c0,1.291,0,5.375,0,6.233s1.715,6.233,1.715,6.233s0,6.232,0,7.094
	c0,0.858-1.144,8.382-1.144,9.672s0.192,4.729,0.381,5.589c4.208,1.024,6.964,1.309,2.667,9.672l-1.714,4.943
	c-0.863,2.666,0.105,8.09-6.479,2.148l-3.428,2.152c0,0-1.905,2.363-1.905,3.225c0,0.86,0.763,5.587,0.763,5.587l-0.573,5.588
	l-4.952,7.955l-1.333,15.693l2.287,8.382l-9.713,10.963L6.838,667.37l0.38,10.747l2.094,9.89l2.858,6.447
	c0,0,1.334,1.289,1.521,2.796c1.66,5.997,5.555,6.447,9.714,6.231l2.288,3.652l0.19,4.73l-3.048,3.868
	c-5.052,4.571,0.145,6.815,1.714,10.319c0,0,5.714,5.375,6.286,6.233c0.571,0.861,0.38,7.954,0.38,7.954
	C32.295,742.872,37.306,743.651,32.946,748.835z"/>
<path id="path3187" fill="#FFFFFF" stroke="#918880" stroke-width="3" stroke-miterlimit="10" d="M232.561,308.169l-5.333-2.149
	l-0.38,9.887c0,0-1.907,5.16-2.095,6.45c-0.19,1.288-0.763,7.309-0.763,7.309l0.38,4.298h6.096c0,0,3.428,2.149,4.38,3.008
	c10.898,1.732,5.261,8.669,5.143,18.488l-3.999,8.812c0,0-4.382,6.02-4.382,7.309c0,1.291,0,4.515,0,4.515l6.478,4.084l3.809,1.719
	l0.379,6.232c-0.756,3.87-2.248,7.621,0.381,12.037l3.62,9.458c3.867,16.505,4.605,2.968,6.667,2.149
	c3.716,1.262,2.288,2.582,3.047,6.234c0.571,1.719,3.048,5.158,3.048,5.158c3.408,5.206,4.631,1.346,6.667,0.861l4.188-4.942
	c4.296-8.98,6.416-1.607,9.334-0.217c8.055-3.325,11.438-7.31,15.62-11.178c-0.381-2.151-3.621-4.729-3.621-4.729l-0.571-2.796
	l1.336-9.672l0.571-8.385l1.522-3.869c5.194,2.208,3.455-3.411,4-6.449l5.713-22.14l3.81-5.16l2.665-4.941l-0.761-3.442
	c0,0,1.523-2.364,2.284-3.223c0.763-0.861,1.714-5.804,1.714-5.804l-1.714-5.588c-1.365-3.493,9.214-17.028-4.761-15.476
	c0,0-2.479,0-3.239,0s-5.522-1.505-5.522-1.505s-4.379,3.438-5.333,3.652c-0.951,0.215-3.809-0.645-3.809-0.645l-5.715-1.291
	l-4.762-2.579l-5.142-0.217l-4.763-4.083c-2.481-1.076-4.272-5.964-6.286-2.795l-5.904-0.644l-7.048,0.427l-1.335,4.944
	c0,0,0,4.514,0.572,5.375c2.207,9.77-1.953,8.315-7.81,3.869L232.561,308.169z"/>
<path id="FO" fill="#FFFFFF" stroke="#918880" stroke-width="3" stroke-miterlimit="10" d="M433.316,53.014
	c5.205,7.023,8.343,14.628,15.619,21.066c1.144,2.438,2.286,2.247,3.428,7.738c6.852,5.607,13.986,10.26,20.383,17.413
	c2.438,4.151,4.199,10.274,10.476,11.178c8.041,0.761,5.054,2.995,7.62,4.73c3.991,1.385,8.49,2.273,8.571,7.523
	c3.647,6.679,7.414,13.28,17.521,15.476l9.144,11.824c9.801,3.01,15.333,17.295,19.618,9.029c8.917-3.688,10.787,0.579,13.333,4.083
	h5.334l6.096,2.581c26.771,5.279,27.864,16.767,45.143,27.729l4.95,1.506l9.523,6.449c10.724-0.826,15.83,5.336,25.711,13.326
	l4.952,0.215l15.81,7.955l11.235,12.253l3.811,4.084v3.225l4.191,5.158l1.142,3.01c-14.471,23.761-10.965,5.15-15.618,24.505
	c-7.314,17.273-16.512,22.959-21.904,35.899l-0.952,7.094c0.586,13.644-1.829,8.158-5.522,20.636l-4.188,7.308l-7.241-8.384
	c-5.27-1.964-8.959-8.388-13.331-12.896l-6.476-7.74c-3.039-3.366-8.823-6.733-14.858-10.102
	c-8.964-1.515-11.643-1.689-16.761-7.953c-1.491-4.339-4.667-6.771-9.715-7.094c-6.614-0.078-3.827-5.896-5.143-10.534
	c-0.57-0.86-4.38-3.654-4.38-3.654l-4.951-9.455c-1.613-2.864-3.792-4.934-7.428-4.945c0,0-3.237-4.298-4.19-4.943
	c-0.952-0.644-5.712-2.364-5.712-2.364c0.038-4.32-0.452-7.964-2.666-10.316l-6.667-7.094c-3.083,0.516-5.103-2.977-6.667-8.167
	l-6.476-5.804l-4.951-2.363l-11.62-7.523l-5.141-6.018l-8.38-6.88c-3.685-2.104-0.006-10.581-14.858-12.896l-5.714-5.375
	c-3.637-3.862-7.228-8.198-11.091-9.739c-0.983-0.389-1.791,0.903-3.003-0.58c2.427-7.289-1.906-8.432-8.57-7.738
	c-1.107-4.504-5.333-5.931-10.476-6.451l-8.763,0.215L433.316,53.014z"/>
<g id="g3269" transform="matrix(1.7071538,0,0,1.8109587,-173.75729,-511.27245)">
	<path id="path3195" fill="#FFFFFF" stroke="#918880" stroke-width="3" stroke-miterlimit="10" d="M483.526,487.301l12.088,1.101
		l10.245,4.41l10.018,2.081l5.18,2.695l7.713,3.306l3.454,0.49c-0.818-2.471,1.046-2.799,1.611-4.164
		c1.194-1.907,2.763-2.21,4.721-0.857l1.842,4.286l2.303-1.225l3.224-5.021l6.216-2.818l5.41,2.45l-1.955,3.307
		c0,0,0.344,1.837,0.344,2.572c0,0.736-0.115,4.288-0.115,4.288l0.805,2.939l2.764,4.287l1.958,1.715l0.344,2.449l3.11,3.675
		l1.842,2.694l0.69,3.063l-2.532,3.061c-1.818,3.87-1.845,2.54-4.606,5.389c-0.228,0.49-1.61,2.327-1.61,2.327l-2.417,1.101
		c0,0-1.266,2.451-1.611,2.939c-0.346,0.49-2.648,1.593-2.648,1.593l-2.072,2.449l-3.34,4.655c0,0-1.497,3.308-2.188,4.042
		c-0.692,0.736-3.338,3.796-3.338,3.796l-3.453,1.348l-1.611,2.205l-2.073,2.817l-0.805,3.797c0,0-2.534,2.694-2.993,3.43
		c-0.459,0.735-2.072,2.694-2.072,2.694l-2.534,0.612c-1.562-0.481-1.406,1.6-1.496,3.308l-2.532,2.081l-3.569,2.818
		c-2.074,0.345-3.294,1.371-4.144,2.693l-0.69,1.592c0,0-1.727,0.368-1.958,0.857c-0.231,0.49-0.347,2.819-0.347,2.819
		s0,2.45-0.459,2.694c-0.459,0.245-3.338,2.818-3.338,2.818l-2.763,1.348l-2.417,1.225l-1.38,2.572l-1.381,4.408l-2.417,4.164
		c0,0-1.728,2.205-1.843,2.939c-0.116,0.736-0.808,4.409-0.808,4.409l-3.567-6.492v-4.9l-4.261-2.572l-1.841-2.45l-2.304-1.591
		l-5.295-1.47l-5.525,0.857l-5.067,2.451l-4.834-0.613l-3.339,1.47l-3.799,1.348l-5.413,0.123l-4.375-0.98l-3.336,1.837
		l-1.153,0.368l1.037-7.227c0,0,1.035-3.796,1.035-4.408c0-0.612-1.381-4.777-1.497-5.388c-0.114-0.613-0.46-3.553,0.116-4.409
		c0.575-0.857,2.762-8.206,2.532-8.94c-0.23-0.736,0.46-7.471,0.46-7.471c0.632-3.223,4.209-4.195,6.679-5.512l5.986-5.88
		l1.034-7.226l0.576-5.267l0.576-1.714l0.691-4.288l0.117-6.245l2.302-7.716l2.992-3.796c0,0,2.303-2.572,2.303-3.43
		s1.151-6.613,1.035-7.227c-0.116-0.612-0.69-4.775-0.69-4.775l-0.346-6.86c0,0,1.037-2.327,1.268-2.817
		C472.315,490.221,477.358,488.261,483.526,487.301z"/>
</g>
<path id="path3201" fill="#FFFFFF" stroke="#918880" stroke-width="3" stroke-miterlimit="10" d="M634.011,830.789l-3.34-14.197
	l2.945-21.517l2.95-10.422l3.732-12.866l9.041-2.441l4.323-4.879l-1.768-21.073l-3.342-13.31l3.537-12.42l2.753-5.323l-3.147-9.092
	l0.983-7.541l-0.983-4.435l-0.39-5.104l7.858-6.431l2.361-10.205l0.784-4.656l-1.768-3.326l0.195-3.993l5.503-7.982l3.542-12.422
	l2.356-20.626l-0.786-9.094l-2.554-5.767l-5.699-10.866l0.392-7.766l-8.449-4.661l-4.524-5.766l-5.108-1.774l-9.435-1.552
	l-6.485,1.329l-6.683,3.105l-3.732,0.667l-6.093-0.667l-3.537,1.997l-6.095,2.66l-8.253,0.443l-3.343,0.888l-6.486-2.441
	l-8.647,5.101l0.784,19.075l-2.749,9.54l-5.307,10.426c0,0-11.203,19.074-11.203,19.961c0,0.888-7.074,15.527-7.074,15.527
	l-14.15,11.759l-10.417,9.758l-4.325,10.202l-0.195,11.532l-1.77,14.64l-2.163,14.419l2.358,15.082c0,0,1.181,9.536,1.965,9.092
	c0.784-0.445,8.454,12.42,8.454,12.42l8.844,8.873l17.099,19.299l13.759,7.54l3.34,5.1l9.238,3.329l6.487,7.321l8.056,1.332
	l7.665,3.103l10.417,1.996l5.896,3.77l5.896,4.215l4.521,0.223L634.011,830.789z"/>
<path id="path3228" fill="#FFFFFF" stroke="#918880" stroke-width="3" stroke-miterlimit="10" d="M778.641,383.208l-2.087,3.869
	l-1.343,4.375c0,0,0.298,3.869,0.298,5.551c0,1.684-0.298,6.395-0.298,7.065c0,0.671,2.237,3.702,2.237,3.702l7.303,10.6
	c0,0-0.146,3.869,0.15,4.709c0.298,0.842,2.832,5.213,4.026,6.393c1.189,1.177,3.725,5.887,3.725,5.887s2.386,1.851,4.025,0.841
	c1.641-1.009,5.516,1.01,5.516,1.01l3.132-2.86l3.577-6.224l6.408-6.227l4.028-2.018h5.664l4.47-6.393l3.878-1.345l1.491-4.376
	l6.11-5.72l6.261-3.533l6.26-2.354l3.875-1.851l4.621-2.019l0.746-1.009l5.066-0.168l3.283-0.334l4.172-8.414l4.324-1.009
	l3.129-1.515l0.298-1.852l2.984-3.026l4.024-1.009l1.639-2.019l3.131,3.196l2.237-0.843l0.298-2.86l5.364-6.896l2.087-4.205
	l0.445-3.702l-0.595-1.682l-1.189-1.178l0.295-3.869l-1.491-2.018l-0.297-5.551l2.086-11.273l1.041-2.859l1.791-4.71
	c0,0-0.298-6.896-0.298-7.907c0-1.009,0-7.403,0-7.403l-3.727-6.729l-3.278-4.038c0,0-0.148-4.374-0.148-5.551
	s-0.448-8.579-0.448-9.253c0-0.673,0.448-4.038-0.148-4.542c-0.599-0.504-3.878-5.214-3.878-5.214l-2.683-5.047l-1.789-3.364
	l-2.384,0.673c0,0-2.237,1.009-2.981,0.505c-0.747-0.505-2.685-2.524-2.685-2.524s-0.744-0.504-1.491-0.334
	c-0.746,0.167-3.725,3.533-3.725,3.533l-1.789,1.343L873,267.13c0,0-0.895-2.019-1.641-1.178c-0.745,0.841-4.323,3.027-4.323,3.027
	l-4.321-2.354l-1.641-1.682h-3.578c0,0,0.3,2.187,0.3,3.196c0,1.009-0.45,3.701-1.191,5.047c-0.744,1.345-2.684,4.878-2.684,4.878
	s-0.149,2.691,0.148,4.205c0.298,1.515,3.278,4.711,3.278,4.711s-0.146,3.196-0.595,4.038c-0.448,0.84-1.789,3.7-1.789,3.7
	s-1.343,2.691-1.491,4.038c-0.148,1.345-0.148,2.354-0.148,4.037s0,2.019,0,4.206c0,2.185-0.149,3.364-0.298,4.203
	c-0.148,0.839-1.19,4.713-1.491,5.554c-0.3,0.84-0.895,2.523-1.192,4.542c-0.296,2.018-0.895,2.691-1.341,3.366
	c-0.448,0.672-2.088,3.532-2.088,3.532s-1.341,2.019-1.787,2.691c-0.448,0.676-1.491,2.187-1.491,2.187s-0.149,0.842-0.149,2.355
	c0,1.515,0,2.185,0,3.194s-0.148,1.853-0.148,1.853l-2.832,0.505l-3.429-0.505c0,0-2.531,3.026-2.531,4.036s0.742,1.685,0.742,1.685
	l-2.384,3.532l-4.473-0.167c0,0-2.83,2.018-3.429,2.354c-0.595,0.337-1.936,0.673-2.532,2.02c-0.598,1.345-0.746,6.392-0.746,6.392
	l-2.832,0.507c0,0-10.137-0.336-10.731,0c-0.599,0.337-2.087,1.515-2.087,2.353c0,0.844,1.341,6.394,1.341,6.394l-4.77,0.337
	l-2.237,2.691l-1.041,3.196c0,0-1.938,0-1.789,1.01c0.149,1.009,1.491,2.859,1.639,3.701c0.15,0.84-2.682,3.027-3.278,3.532
	c-0.598,0.508-1.493,2.02-2.832,2.526c-1.343,0.505-2.983,1.178-3.878,0.505c-0.895-0.673-3.725-2.523-3.725-2.523l-5.517-3.702
	L778.641,383.208z"/>
<path id="path3193" fill="#FFFFFF" stroke="#918880" stroke-width="3" stroke-miterlimit="10" d="M446.711,581.038l-24.37-1.111
	c-0.162-1.786-0.951-3.112-1.388-4.615c-0.503-1.722,0.102-4.086-0.381-5.365c6.858-12.983-3.277-10.928-8.646-13.973
	c-4.104-3.021-2.715-8.7-3.539-13.31h-11.4l-13.759,0.224c-5.32-0.252-8.365-2.342-10.021-5.547c0.329-3.478-1.436-3.017-2.555-3.77
	c-10.781,3.745-11.821,2.86-16.32-2.434c-5.132-1.585-4.302,5.306-10.016-0.892l-8.057-2.221l-10.022,0.445l-11.792,0.665
	l-13.562,2.22l0.394-7.986l-2.751-6.211c7.506-7.721,0.498-2.935,0.982-12.643c1.61-4.174-1.677-6.257-4.521-9.316v-7.983
	c-0.363-1.744-7.436-7.815-11.204-11.757l0.984-11.089c0.392-6.729,0.784-13.458,1.181-20.184l-2.558-8.432l-2.75-2.661
	l-0.786-10.867l-0.59-3.771c4.729-2.524,8.66-2.112,15.331-11.756l-4.325-5.766l2.752-21.517c2.603,0.086,5.256,0.309,5.306-7.098
	c0.736-5.252,3.537-14.491,4.914-22.625c1.656-3.597,7.652-5.937,5.689-11.346c-0.345-0.947,0.525-2.256,0.008-3.515
	c5.305-1.726,4.136-8.325,3.342-14.639l1.375-15.526l5.897-14.862c0,0,2.161-3.549,2.75-4.435c0.591-0.888,0.393-7.983,0.393-7.983
	l1.769-6.656l2.948-0.666l3.341,1.554l6.683,1.33l0.784-3.77l11.989-1.552l12.185,1.995l7.074,1.775l5.897-7.982l7.271,0.442
	l85.298-0.666l1.181,160.145C462.831,475.902,456.607,528.469,446.711,581.038z"/>
</svg>
